<?xml version="1.0" standalone="no"?>
<!DOCTYPE svg PUBLIC "-//W3C//DTD SVG 20010904//EN"
 "http://www.w3.org/TR/2001/REC-SVG-20010904/DTD/svg10.dtd">
<svg version="1.0" xmlns="http://www.w3.org/2000/svg"
 width="324.000000pt" height="252.000000pt" viewBox="0 0 324.000000 252.000000"
 preserveAspectRatio="xMidYMid meet">

<g transform="translate(0.000000,252.000000) scale(0.100000,-0.100000)"
fill="currentColor" stroke="none">
<path d="M1240 2279 c-41 -27 -87 -62 -101 -78 -20 -22 -33 -27 -53 -24 -22 5
-36 -4 -81 -49 -40 -40 -62 -55 -83 -55 -33 0 -72 -31 -116 -93 -28 -41 -31
-52 -31 -120 0 -71 -2 -78 -33 -115 -36 -43 -62 -103 -62 -147 0 -24 -30 -58
-52 -58 -5 0 -8 25 -8 56 0 41 -8 71 -31 119 -26 55 -30 72 -27 131 2 38 -1
70 -6 72 -12 4 -36 -71 -36 -110 0 -15 -15 -50 -32 -79 -27 -42 -33 -64 -36
-120 -4 -73 -11 -80 -50 -53 -20 13 -22 24 -22 95 0 62 -3 79 -14 79 -8 0 -17
-4 -20 -9 -12 -20 -8 -286 5 -314 9 -21 10 -30 1 -39 -19 -19 -13 -99 12 -160
19 -46 21 -58 10 -62 -19 -7 -17 -29 7 -97 29 -78 76 -132 131 -148 74 -22 90
-34 130 -101 22 -36 53 -82 69 -102 44 -56 48 -55 -76 -28 -60 13 -235 25
-235 16 0 -4 8 -19 17 -34 99 -158 207 -207 433 -195 l115 6 77 -37 c42 -20
81 -36 87 -36 6 0 11 -4 11 -10 0 -5 -15 -10 -34 -10 -61 0 -142 -33 -213 -87
-74 -56 -90 -84 -55 -98 40 -16 125 -35 157 -35 48 0 140 36 207 82 84 56 116
53 264 -22 64 -33 121 -60 126 -60 4 0 63 27 130 60 144 71 177 75 245 30 126
-85 207 -105 315 -76 108 29 110 35 36 100 -57 50 -183 106 -238 106 -16 0
-30 3 -30 8 0 4 33 23 73 42 l72 35 155 0 c85 1 169 5 185 9 53 14 118 50 156
87 39 39 89 111 89 130 0 14 -156 6 -235 -11 -96 -21 -105 -22 -105 -14 0 4
12 19 26 33 14 15 49 65 78 111 49 80 54 85 91 91 74 10 116 42 154 115 29 55
37 109 21 138 -10 19 -9 29 8 62 11 22 23 65 27 96 6 47 4 57 -10 65 -16 9
-16 13 -1 57 22 66 12 309 -13 304 -13 -3 -17 -19 -19 -81 -3 -74 -4 -78 -32
-92 -16 -8 -31 -15 -33 -15 -2 0 -2 22 1 48 4 48 -17 111 -59 172 -9 14 -20
52 -24 86 -13 113 -41 115 -36 3 2 -59 -2 -78 -26 -127 -21 -43 -28 -71 -28
-119 0 -44 -4 -63 -12 -63 -23 0 -53 39 -53 68 0 52 -21 100 -61 142 -39 40
-40 44 -34 89 10 76 -9 128 -70 189 -44 44 -57 52 -78 47 -19 -5 -29 -1 -41
16 -28 41 -99 91 -120 85 -13 -3 -35 10 -72 43 -29 26 -68 55 -87 64 -19 9
-40 23 -47 32 -16 19 -50 20 -50 1 0 -7 12 -22 28 -32 38 -24 51 -44 52 -76 0
-34 -7 -34 -62 -6 -28 15 -66 24 -110 26 -41 3 -72 10 -79 18 -12 15 -49 19
-49 7 0 -5 18 -25 40 -46 22 -20 40 -44 40 -53 0 -18 36 -72 60 -91 8 -7 27
-18 43 -25 15 -7 27 -15 27 -18 0 -3 -16 -13 -34 -22 -33 -16 -35 -16 -80 8
-51 27 -66 30 -66 11 0 -16 32 -47 48 -47 6 0 39 -18 73 -40 34 -22 70 -40 80
-40 30 0 49 -11 49 -30 0 -22 33 -44 91 -61 24 -7 48 -19 52 -26 22 -35 135
-83 197 -83 12 0 46 12 77 26 49 24 57 25 70 11 26 -25 27 -25 -192 -127 -60
-29 -186 -90 -280 -135 -293 -143 -318 -155 -331 -155 -7 0 -43 16 -81 36 -79
42 -139 72 -206 104 -71 35 -76 31 158 141 283 133 360 174 360 195 0 10 -8
20 -17 22 -9 2 -130 -53 -270 -121 -288 -141 -342 -167 -358 -167 -6 0 -45 16
-88 36 -42 20 -114 54 -160 75 -45 22 -86 39 -90 39 -4 0 -18 9 -32 20 -24 18
-24 20 -8 36 17 17 20 17 64 -6 69 -34 142 -33 221 3 33 16 63 36 66 45 2 10
24 23 53 31 63 18 94 39 94 62 0 12 10 21 28 25 53 12 62 16 111 50 28 19 54
34 59 34 10 0 52 43 52 53 0 13 -30 7 -62 -13 -40 -24 -61 -25 -94 -4 l-25 17
43 28 c49 33 77 66 78 92 0 9 18 37 40 61 43 46 37 67 -11 40 -13 -7 -50 -13
-81 -14 -42 0 -69 -7 -102 -25 -25 -14 -48 -25 -51 -25 -3 0 -5 17 -3 37 2 30
10 42 35 58 32 20 45 56 21 54 -7 0 -47 -23 -88 -50z m-20 -127 c0 -38 -6 -55
-31 -85 -50 -61 -80 -46 -59 29 13 45 58 104 79 104 6 0 11 -20 11 -48z m778
32 c42 -29 79 -134 56 -157 -24 -24 -94 78 -94 136 0 41 5 44 38 21z m-562 -9
c14 -37 -50 -93 -116 -102 -49 -7 -52 8 -12 57 40 48 117 75 128 45z m431 -31
c18 -14 33 -29 33 -34 0 -4 3 -15 6 -24 5 -13 -2 -16 -35 -16 -33 0 -49 7 -81
36 -22 20 -40 45 -40 56 0 18 4 20 42 14 23 -4 57 -18 75 -32z m-802 -44 c4
-6 4 -33 0 -61 -7 -52 -44 -109 -71 -109 -22 0 -18 79 6 118 36 59 53 72 65
52z m1101 -26 c32 -40 42 -64 43 -111 1 -44 -18 -43 -58 2 -27 31 -31 43 -31
90 0 30 4 55 9 55 5 0 22 -16 37 -36z m-1251 -85 c11 -35 -4 -87 -37 -124 -39
-45 -58 -45 -58 -1 0 46 16 85 48 119 31 32 39 34 47 6z m390 0 c84 -31 72
-59 -26 -59 -50 0 -109 22 -109 40 0 9 52 37 72 39 4 1 32 -8 63 -20z m1008
-1 c26 -30 57 -97 57 -126 0 -36 -28 -39 -61 -6 -29 30 -49 105 -36 138 8 21
16 20 40 -6z m-306 -11 c14 -14 12 -17 -16 -32 -43 -22 -154 -18 -159 6 -8 42
137 64 175 26z m-829 -87 c42 -26 40 -37 -8 -50 -30 -8 -51 -8 -83 1 -64 19
-74 29 -47 51 30 24 96 23 138 -2z m957 8 c39 -18 26 -40 -33 -56 -45 -12 -59
-13 -93 -2 -21 7 -39 16 -39 20 0 3 17 16 38 28 41 24 88 28 127 10z m-1100
-100 c14 -6 25 -17 25 -24 0 -31 -149 -40 -178 -10 -16 16 -16 18 2 32 24 17
115 19 151 2z m1269 -3 c47 -35 -57 -69 -135 -44 -22 8 -41 19 -41 24 -2 32
139 48 176 20z m370 -125 c25 -64 15 -145 -20 -157 -15 -5 -47 64 -46 99 1 30
30 98 42 98 4 0 15 -18 24 -40z m-2109 -25 c14 -64 -2 -130 -31 -130 -38 0
-52 110 -22 168 17 32 41 15 53 -38z m291 -41 c54 -25 235 -113 402 -195 l302
-150 0 -515 c0 -323 -4 -514 -10 -514 -10 0 -97 46 -118 63 -9 7 -11 45 -10
141 2 126 1 133 -25 186 -26 50 -111 150 -128 150 -11 0 -21 -30 -34 -105 -15
-83 -5 -163 31 -241 13 -28 24 -54 24 -57 0 -3 -13 -1 -30 4 -47 17 -117 86
-145 144 l-27 55 26 73 c20 57 26 92 26 158 0 47 -4 89 -8 95 -5 5 -15 25 -22
44 -21 53 -161 247 -180 249 -10 2 -40 -57 -66 -126 -34 -93 -42 -212 -20
-284 23 -73 75 -141 139 -184 31 -21 63 -52 76 -75 21 -38 22 -40 3 -40 -11 0
-36 11 -56 25 -20 14 -41 25 -46 25 -14 0 -228 214 -240 240 -6 14 -22 43 -35
65 -32 52 -31 68 4 98 50 42 71 96 71 185 0 59 -4 83 -15 92 -11 9 -15 33 -15
89 0 42 -4 81 -9 86 -6 6 -6 26 0 53 5 23 8 75 7 115 -2 69 4 97 21 97 5 0 53
-21 107 -46z m1594 26 c7 -13 11 -91 11 -203 0 -164 -2 -186 -20 -222 -44 -83
-19 -208 55 -278 38 -35 38 -45 -5 -111 -75 -117 -154 -199 -270 -280 -51 -36
-574 -306 -593 -306 -4 0 -7 232 -6 516 l3 517 45 23 c25 13 144 71 265 130
121 58 251 121 288 140 37 19 73 34 80 35 7 0 32 13 57 29 54 34 76 37 90 10z
m-1983 -172 c13 -13 29 -45 37 -72 13 -41 13 -48 0 -53 -26 -10 -87 50 -106
103 -23 64 -18 80 19 60 16 -8 38 -25 50 -38z m213 24 c0 -55 -65 -142 -106
-142 -37 0 -2 94 52 138 47 39 54 40 54 4z m2120 -2 c0 -40 -22 -81 -60 -114
-44 -37 -60 -34 -60 10 0 31 8 45 49 85 26 27 53 49 60 49 6 0 11 -14 11 -30z
m-243 -1 c39 -24 63 -65 63 -109 0 -34 -10 -37 -46 -14 -47 32 -97 144 -63
144 7 0 27 -9 46 -21z m-1874 -190 c-2 -13 -5 -34 -8 -46 -7 -29 -63 -93 -81
-93 -23 0 -17 59 11 106 38 65 83 83 78 33z m1861 10 c35 -27 56 -70 56 -112
0 -47 -9 -51 -43 -20 -33 33 -57 83 -57 124 0 34 8 36 44 8z m244 -51 c-11
-31 -28 -53 -64 -80 -54 -42 -62 -45 -70 -23 -11 28 39 107 85 137 55 35 68
25 49 -34z m-2342 31 c43 -26 70 -65 79 -112 9 -46 -3 -48 -58 -10 -41 28 -60
58 -72 111 -8 38 3 41 51 11z m269 -193 c-8 -50 -58 -130 -78 -123 -34 11 -17
105 29 153 43 46 59 37 49 -30z m1801 32 c34 -40 44 -67 44 -113 0 -55 -18
-59 -54 -12 -31 40 -48 147 -24 147 8 0 23 -10 34 -22z m-2024 -52 c31 -16 50
-36 66 -70 12 -26 20 -51 17 -56 -7 -12 -74 16 -103 43 -27 25 -52 69 -52 92
0 21 23 19 72 -9z m490 -15 c30 -35 52 -71 95 -153 7 -15 16 -48 19 -75 6 -58
-16 -158 -35 -158 -15 0 -56 115 -66 184 -9 69 -15 81 -36 81 -13 0 -19 -7
-19 -24 0 -20 31 -150 56 -233 10 -34 -9 -28 -50 17 -51 56 -66 100 -66 188 0
84 34 212 56 212 7 0 27 -18 46 -39z m1778 15 c0 -28 -75 -116 -99 -116 -9 0
-22 -5 -29 -12 -21 -21 -25 18 -6 58 17 35 92 94 121 94 7 0 13 -11 13 -24z
m-1428 -433 c13 -21 29 -54 35 -73 15 -42 17 -149 3 -170 -9 -13 -13 -11 -30
10 -50 63 -76 157 -64 230 8 50 26 51 56 3z m-684 -17 c66 -14 212 -80 212
-96 0 -14 -85 -23 -147 -15 -32 4 -76 16 -98 26 -46 22 -115 76 -115 90 0 13
75 11 148 -5z m2032 5 c0 -16 -72 -72 -116 -91 -76 -33 -242 -39 -232 -8 3 9
69 46 138 77 59 26 210 42 210 22z m-1485 -320 c6 -10 -60 -58 -108 -79 -41
-18 -177 -16 -177 2 0 15 55 54 105 73 36 14 171 17 180 4z m1020 -27 c33 -17
61 -38 63 -47 3 -15 -7 -17 -80 -17 -75 0 -89 3 -143 34 -33 18 -62 41 -63 51
-4 15 4 17 80 14 69 -3 93 -9 143 -35z"/>
</g>
</svg>
